<svg width="784" height="133" viewBox="0 0 784 133" fill="none" xmlns="http://www.w3.org/2000/svg">
<path d="M116.024 127.957C86.0745 131.161 59.6481 132.762 36.7452 132.762C25.8543 132.762 17.1256 129.479 10.559 122.912C3.99249 116.346 0.70921 107.617 0.70921 96.7263V41.4711C0.70921 29.4591 4.07257 20.0897 10.7993 13.363C17.6862 6.47609 27.1356 3.03265 39.1476 3.03265H116.024V35.4651H52.3608C45.9544 35.4651 42.7512 38.6683 42.7512 45.0747V91.9215C42.7512 94.3239 43.552 96.3259 45.1536 97.9275C46.7552 99.5291 48.7572 100.33 51.1596 100.33C65.574 100.33 87.1956 99.1287 116.024 96.7263V127.957ZM336.951 94.3239C336.951 106.336 333.508 115.785 326.621 122.672C319.894 129.399 310.525 132.762 298.513 132.762H243.258C231.246 132.762 221.796 129.399 214.909 122.672C208.183 115.785 204.819 106.336 204.819 94.3239V39.0687C204.819 27.0567 208.183 17.6873 214.909 10.9606C221.796 4.0737 231.246 0.630255 243.258 0.630255H298.513C310.525 0.630255 319.894 4.0737 326.621 10.9606C333.508 17.6873 336.951 27.0567 336.951 39.0687V94.3239ZM294.909 42.6723C294.909 36.2659 291.706 33.0627 285.3 33.0627H256.471C250.065 33.0627 246.861 36.2659 246.861 42.6723V90.7203C246.861 97.1267 250.065 100.33 256.471 100.33H285.3C291.706 100.33 294.909 97.1267 294.909 90.7203V42.6723ZM444.984 132.762C438.097 132.762 430.089 131.961 420.96 130.36V99.1287H430.57C436.656 99.1287 439.859 95.9255 440.179 89.5191L444.984 3.03265H560.3V130.36H518.257V35.4651H484.624L481.02 96.7263C480.38 107.617 476.776 116.346 470.209 122.912C463.643 129.479 455.235 132.762 444.984 132.762ZM656.264 130.36V3.03265H698.306V42.6723H747.555C758.446 42.6723 767.175 45.9555 773.742 52.5221C780.308 59.0887 783.591 67.8174 783.591 78.7083V94.3239C783.591 105.215 780.308 113.943 773.742 120.51C767.175 127.077 758.446 130.36 747.555 130.36H656.264ZM733.141 100.33C735.543 100.33 737.545 99.5291 739.147 97.9275C740.749 96.3259 741.549 94.3239 741.549 91.9215V81.1107C741.549 78.7083 740.749 76.7063 739.147 75.1047C737.545 73.5031 735.543 72.7023 733.141 72.7023H698.306V100.33H733.141Z" fill="white"/>
</svg>
